<?xml version="1.0" encoding="utf-8"?>
<!-- Generator: Adobe Illustrator 19.1.0, SVG Export Plug-In . SVG Version: 6.00 Build 0)  -->
<svg version="1.1" xmlns="http://www.w3.org/2000/svg" xmlns:xlink="http://www.w3.org/1999/xlink" x="0px" y="0px"
	 viewBox="0 0 500 500" style="enable-background:new 0 0 500 500;" xml:space="preserve">
<style type="text/css">
	.st0{fill:#F9B233;}
	.st1{fill:#F39200;}
	.st2{fill:#E94E1B;}
</style>
<g id="Ebene_1">
	<path class="st0" d="M323.8,97.1H176.2c-33.8,28.5-55.9,76.1-55.9,130c0,61.2,28.5,114.3,70.3,140.6h118.7
		c41.7-26.3,70.3-79.4,70.3-140.6C379.6,173.2,357.5,125.6,323.8,97.1z"/>
</g>
<g id="Ebene_2">
	<path class="st1" d="M156.9,96.9c0-18.5,41.7-33.5,93.1-33.5s93.1,15,93.1,33.5"/>
	<path class="st2" d="M347.2,116.2H152.8c-5.4,0-9.7-4.4-9.7-9.7v0c0-5.4,4.4-9.7,9.7-9.7h194.5c5.4,0,9.7,4.4,9.7,9.7v0
		C357,111.8,352.6,116.2,347.2,116.2z"/>
</g>
</svg>
