
<svg xmlns="http://www.w3.org/2000/svg" version="1.1" xmlns:xlink="http://www.w3.org/1999/xlink" preserveAspectRatio="none" x="0px" y="0px" width="500px" height="500px" viewBox="0 0 500 500">
<defs>
<g id="Layer0_0_FILL">
<path fill="#FFC90E" stroke="none" d="
M 377 92.65
Q 376.5 73.5 339.8 59.9 324.8232421875 54.3642578125 307.35 51.05 281.423046875 46.15 250 46.15 248.1404296875 46.15 246.3 46.15 196.084765625 46.6361328125 160.2 59.9 123.5 73.5 123 92.65
L 377 92.65
M 409 268.65
Q 409 252.5 407.6 237.2 339.9 252.65 250 252.65 160.15 252.65 92.45 237.2 91 252.5 91 268.65 91 360.6 137.55 425.6 149.1 441.75 161.9 453.9
L 338.1 453.9
Q 350.85 441.75 362.4 425.6 371.2 413.35 378.3 400.15 324.3 408.45 258.3 408.45 181.15 408.45 120.35 397.1 101.4 360.7 94.85 317.25 164.5 334.05 258.3 334.05 340.95 334.05 404.9 321.05 409 296.05 409 268.65
M 391.55 166.2
Q 383.7 145.4 372.3 126.65
L 127.65 126.65
Q 116.25 145.4 108.45 166.2 170.55 178.25 250 178.25 329.45 178.25 391.55 166.2 Z"/>

<path fill="#CA5100" stroke="none" d="
M 405.2 320.95
Q 405.05 321 404.9 321.05 340.95 334.05 258.3 334.05 164.5 334.05 94.85 317.25 101.4 360.7 120.35 397.1 181.15 408.45 258.3 408.45 324.3 408.45 378.3 400.15 378.5 400.15 378.65 400.1 398.05 364.05 405.2 320.95
M 391.8 166.8
Q 391.65 166.5 391.55 166.2 329.45 178.25 250 178.25 170.55 178.25 108.45 166.2 96 199.15 92.45 237.2 160.15 252.65 250 252.65 339.9 252.65 407.6 237.2 404.1 200.3 392.3 168.2 392.15 167.85 392.05 167.5 391.9 167.15 391.8 166.8
M 382.6 92.65
L 377 92.65 123 92.65 118 92.65
Q 110.95 92.65 105.95 97.6 101 102.6 101 109.65 101 116.7 105.95 121.65 110.95 126.65 118 126.65
L 127.65 126.65 372.3 126.65 382 126.65
Q 389.05 126.65 394 121.65 399 116.7 399 109.65 399 102.6 394 97.6 389.25 92.85 382.6 92.65 Z"/>
</g>
</defs>

<g transform="matrix( 1, 0, 0, 1, 0,0) ">
<use xlink:href="#Layer0_0_FILL"/>
</g>
</svg>
